<?xml version="1.0" standalone="no"?>
<!DOCTYPE svg PUBLIC "-//W3C//DTD SVG 20010904//EN"
 "http://www.w3.org/TR/2001/REC-SVG-20010904/DTD/svg10.dtd">
<svg version="1.0" xmlns="http://www.w3.org/2000/svg"
 width="200.000000pt" height="200.000000pt" viewBox="0 0 200.000000 200.000000"
 preserveAspectRatio="xMidYMid meet">
<metadata>
Created by potrace 1.14, written by Peter Selinger 2001-2017
</metadata>
<g transform="translate(0.000000,200.000000) scale(0.100000,-0.100000)"
fill="#000000" stroke="none">
<path d="M980 1841 c0 -4 -16 -13 -35 -21 -19 -7 -32 -17 -29 -22 3 -4 -2 -5
-10 -2 -9 3 -16 1 -16 -5 0 -6 -7 -11 -15 -11 -8 0 -15 -5 -15 -11 0 -5 -4 -7
-10 -4 -5 3 -10 1 -10 -5 0 -6 -4 -8 -10 -5 -5 3 -10 1 -10 -5 0 -6 -4 -8 -10
-5 -5 3 -10 1 -10 -5 0 -7 -7 -9 -16 -6 -8 3 -12 2 -9 -3 3 -5 -4 -12 -15 -16
-11 -3 -20 -11 -20 -16 0 -6 -4 -8 -9 -5 -4 3 -19 -3 -31 -14 -22 -19 -34 -23
-45 -17 -2 1 -11 -7 -20 -18 -9 -11 -14 -13 -10 -5 4 8 -1 6 -10 -5 -9 -11
-20 -20 -26 -20 -5 0 -14 -6 -18 -14 -5 -8 -16 -11 -25 -8 -8 3 -18 1 -22 -5
-4 -7 -3 -8 4 -4 7 4 12 5 12 1 0 -7 -52 -29 -62 -27 -5 1 -8 -3 -8 -9 0 -5
-14 -15 -30 -20 -17 -6 -30 -16 -30 -22 0 -6 -3 -7 -6 -4 -4 4 -19 -2 -34 -13
-16 -11 -33 -20 -39 -20 -5 0 -14 -7 -19 -16 -5 -9 -13 -16 -18 -16 -17 -1
-49 -15 -46 -22 1 -3 2 -8 1 -11 0 -3 0 -25 0 -50 0 -95 1 -105 15 -105 8 0
17 7 20 16 3 8 10 12 16 9 6 -4 10 15 10 50 0 53 18 94 34 78 3 -4 6 -1 6 6 0
7 4 10 9 7 5 -4 11 -3 13 1 1 5 24 19 51 32 26 13 47 28 47 33 0 4 9 8 20 8
11 0 20 3 20 8 0 4 18 15 40 25 22 9 40 22 40 28 0 5 4 8 9 5 4 -3 19 3 32 15
12 11 29 17 36 14 8 -2 11 0 8 5 -3 5 6 12 20 16 13 3 22 10 19 15 -3 5 4 9
15 9 11 0 24 7 29 16 5 9 12 15 15 15 19 -3 27 0 41 15 9 9 22 17 30 18 7 1
21 10 30 19 10 9 22 15 27 12 5 -4 9 -1 9 4 0 6 7 11 15 11 8 0 15 5 15 11 0
5 5 7 10 4 6 -3 10 -1 10 4 0 18 50 12 77 -9 14 -11 32 -20 39 -20 8 0 14 -4
14 -10 0 -5 7 -10 16 -10 8 0 13 -4 10 -8 -2 -4 5 -9 17 -9 12 -1 23 -7 25
-13 2 -5 10 -10 18 -10 8 0 14 -5 14 -11 0 -5 5 -7 10 -4 6 3 10 1 10 -4 0 -6
6 -10 13 -8 6 1 11 -3 10 -10 -1 -6 5 -10 14 -9 10 2 26 -5 37 -16 11 -10 26
-18 33 -18 7 0 13 -4 13 -10 0 -5 9 -10 21 -10 13 0 18 -4 13 -12 -5 -8 0 -9
14 -6 12 4 20 2 17 -3 -3 -5 12 -17 35 -26 22 -10 40 -21 40 -25 0 -5 9 -8 20
-8 11 0 20 -7 20 -16 0 -8 4 -13 8 -10 5 3 22 -3 39 -14 42 -25 100 -24 106 2
4 15 2 19 -12 15 -11 -2 -23 4 -30 15 -7 11 -15 17 -18 14 -3 -3 -12 2 -20 10
-8 8 -19 12 -24 9 -5 -4 -9 -2 -9 3 0 5 -13 15 -30 22 -16 7 -30 16 -30 21 0
5 -9 9 -20 9 -11 0 -20 5 -20 11 0 5 -4 8 -9 5 -5 -3 -11 1 -15 9 -3 8 -15 15
-26 15 -11 0 -20 5 -20 10 0 6 -7 10 -15 10 -8 0 -15 5 -15 10 0 6 -5 10 -12
10 -6 0 -20 8 -31 18 -15 12 -18 13 -12 2 8 -13 6 -13 -8 -1 -9 7 -14 18 -10
24 3 6 1 7 -6 3 -6 -4 -33 5 -59 21 -26 16 -59 35 -74 42 -16 8 -28 18 -28 23
0 5 -4 7 -9 3 -5 -3 -12 -1 -16 5 -4 6 -11 7 -17 4 -6 -4 -8 -3 -5 3 3 5 -14
19 -38 30 -25 11 -45 17 -45 14z"/>
<path d="M973 1625 c-3 -9 -3 -19 1 -22 8 -8 -32 -36 -42 -29 -4 2 -14 0 -22
-5 -13 -8 -11 -13 8 -29 14 -11 20 -24 16 -31 -4 -8 -3 -9 4 -5 7 4 12 3 12
-3 0 -5 -5 -11 -12 -13 -6 -2 -9 -12 -5 -21 6 -16 8 -16 27 3 25 25 31 25 57
1 24 -22 39 -16 20 7 -9 13 -9 14 1 8 6 -4 12 -2 12 3 0 6 -4 11 -9 11 -5 0
-7 9 -4 20 3 12 8 19 10 16 6 -5 33 19 33 28 0 3 -16 6 -36 6 -21 0 -33 4 -29
10 3 6 2 10 -4 10 -6 0 -7 8 -4 17 5 13 2 15 -11 10 -14 -5 -17 -3 -12 8 3 8
3 15 0 15 -2 0 -7 -7 -11 -15z"/>
<path d="M1642 1392 c-12 -2 -20 -8 -17 -13 4 -5 -12 -9 -34 -9 -26 0 -41 5
-41 13 0 8 -4 7 -11 -3 -8 -12 -12 -12 -16 -2 -4 10 -8 10 -19 1 -8 -7 -14 -7
-14 -1 0 12 -186 16 -194 4 -3 -5 -28 -10 -55 -11 -28 -1 -62 -6 -76 -11 -18
-7 -25 -6 -25 3 0 9 -2 9 -8 1 -4 -7 -18 -14 -32 -16 -14 -2 -24 -9 -22 -16 1
-8 -1 -11 -6 -8 -5 3 -29 -14 -53 -37 -25 -23 -57 -50 -72 -60 -24 -16 -28
-16 -33 -2 -3 8 -10 12 -15 9 -5 -3 -9 0 -9 5 0 6 -9 11 -20 11 -11 0 -20 4
-20 9 0 8 -28 8 -37 1 -2 -2 -7 -4 -13 -5 -5 -1 -13 -4 -17 -5 -5 -1 -11 -2
-15 -1 -5 0 -8 -4 -8 -10 0 -7 -14 -10 -35 -7 -19 2 -37 -1 -39 -7 -3 -6 -5
-6 -5 0 -1 11 -142 12 -160 1 -6 -4 -11 -4 -11 1 0 9 -122 8 -146 -1 -7 -3
-14 -1 -14 5 0 6 -6 6 -19 0 -10 -6 -21 -8 -24 -4 -4 3 -10 -3 -14 -13 -3 -10
-13 -23 -20 -27 -7 -5 -10 -13 -7 -19 5 -7 1 -9 -9 -5 -12 4 -14 2 -10 -10 4
-9 2 -14 -3 -10 -6 3 -11 -4 -11 -15 -1 -12 -13 -31 -28 -43 -14 -12 -25 -30
-25 -39 0 -10 -4 -14 -10 -11 -5 3 -10 -1 -10 -9 0 -9 -5 -16 -11 -16 -5 0 -8
-4 -5 -9 3 -5 -1 -12 -10 -15 -8 -3 -12 -11 -8 -17 3 -6 0 -15 -7 -20 -12 -8
-12 -10 0 -18 9 -6 10 -10 2 -16 -9 -5 -9 -11 1 -23 10 -12 10 -14 1 -8 -7 4
-13 2 -13 -3 0 -6 6 -11 13 -11 9 0 9 -2 -1 -9 -17 -11 -17 -21 0 -32 7 -5 8
-9 3 -9 -13 0 -15 -43 -2 -51 5 -4 0 -10 -11 -13 -17 -6 -20 -14 -19 -46 2
-22 -1 -40 -5 -40 -4 0 -3 -11 2 -24 6 -17 5 -26 -3 -30 -9 -3 -8 -5 1 -5 7
-1 11 -5 8 -9 -3 -5 20 -10 51 -11 31 -1 60 -4 65 -7 4 -3 8 -1 8 5 0 6 7 7
17 4 10 -4 14 -2 10 4 -11 17 15 30 63 32 58 1 75 -5 77 -29 1 -11 9 -28 18
-37 26 -25 3 -32 -113 -34 -56 -2 -99 -5 -97 -9 2 -4 -2 -7 -10 -7 -8 0 -12 4
-10 8 6 9 -22 6 -31 -4 -4 -4 -20 -7 -35 -7 -15 0 -31 -5 -35 -12 -5 -8 -2 -9
9 -5 9 3 19 3 21 -2 3 -4 21 -7 41 -6 19 0 35 -3 35 -8 0 -5 6 -4 14 2 10 8
16 9 21 1 3 -5 11 -10 16 -10 6 0 7 6 3 13 -6 9 -4 9 7 1 8 -6 21 -11 29 -12
8 0 53 -1 100 -2 47 -1 91 -7 99 -14 12 -8 13 -8 7 2 -5 8 0 12 16 12 18 0 20
-2 8 -10 -9 -6 -10 -10 -3 -10 6 0 15 5 18 10 5 8 11 8 20 0 10 -8 15 -8 20 1
6 8 10 7 16 -2 7 -11 9 -11 9 1 0 13 1 13 10 0 8 -12 13 -13 30 -2 12 7 20 8
20 2 0 -5 5 -10 11 -10 5 0 8 4 5 9 -7 11 13 9 32 -2 7 -5 12 -3 12 5 0 9 3 9
10 -2 9 -13 10 -13 10 0 0 12 2 12 9 1 7 -10 13 -11 31 -1 15 8 20 8 16 1 -9
-14 36 -10 46 4 5 6 8 6 8 -2 0 -13 18 -12 39 1 9 6 12 5 7 -2 -7 -12 32 -11
53 3 9 5 12 4 8 -2 -4 -6 6 -10 24 -11 16 0 27 3 25 7 -3 4 1 8 9 8 8 0 12 -4
9 -9 -6 -9 25 -6 43 5 6 4 14 3 18 -3 7 -11 64 -8 84 4 10 6 12 5 7 -2 -9 -15
36 -12 46 3 5 7 8 6 8 -1 0 -12 78 -12 99 0 9 6 12 5 7 -2 -4 -7 1 -10 14 -9
11 1 20 5 20 10 0 5 7 4 15 -3 12 -10 18 -10 30 0 10 9 15 9 15 1 0 -6 5 -11
11 -11 5 0 7 6 3 13 -5 8 -2 8 9 -2 9 -7 17 -9 17 -5 0 5 57 11 128 13 173 4
185 5 201 15 10 7 12 5 6 -5 -6 -11 -5 -12 6 -2 17 17 32 17 23 0 -6 -9 -4 -9
7 1 7 6 28 12 45 12 18 0 35 4 38 8 4 7 -20 13 -66 15 -10 1 -18 5 -18 10 0 4
-6 5 -12 0 -18 -11 -39 -13 -33 -3 3 5 -13 8 -35 7 -22 -2 -40 0 -40 3 0 3
-20 4 -45 2 l-44 -4 24 48 c13 26 22 51 19 56 -3 4 6 12 20 18 14 5 26 14 26
20 0 6 5 8 10 5 6 -3 10 -2 10 4 0 5 3 17 7 27 5 13 3 15 -7 9 -9 -5 -11 -4
-6 3 11 18 44 14 55 -5 6 -10 11 -14 11 -10 0 4 11 -3 25 -17 16 -16 31 -22
45 -19 19 5 20 13 20 120 0 89 -3 118 -15 130 -8 8 -12 19 -9 25 4 6 2 8 -4 4
-6 -3 -17 3 -25 14 -7 11 -18 17 -23 12 -4 -4 -2 1 6 11 12 16 12 20 -1 28
-12 7 -12 9 1 9 13 0 13 1 0 10 -13 9 -13 10 0 10 9 0 11 3 5 8 -13 9 -18 35
-5 27 5 -3 10 1 10 10 0 13 25 29 53 34 23 3 48 45 46 74 -2 18 0 37 4 44 4 6
1 14 -5 17 -8 4 -9 8 -3 11 17 8 5 85 -13 85 -8 0 -13 3 -9 6 3 4 0 13 -8 21
-11 10 -43 15 -113 16 -53 1 -107 1 -120 -1z m-1292 -197 c0 6 14 11 30 11 17
1 30 -2 30 -7 0 -5 5 -9 11 -9 5 0 7 5 4 10 -10 16 18 7 33 -10 10 -13 12 -13
10 0 -3 16 21 21 40 7 7 -6 12 -6 12 1 0 5 11 10 25 10 13 0 22 -4 20 -8 -6
-10 21 -7 31 3 4 3 15 2 25 -3 12 -7 20 -7 24 0 5 8 12 7 23 -2 13 -11 14 -11
7 1 -5 10 -4 12 3 7 7 -4 12 -14 12 -22 0 -8 4 -14 8 -14 5 0 9 -7 9 -15 0 -8
-4 -12 -9 -9 -4 3 -8 1 -8 -5 0 -5 6 -11 13 -14 9 -3 9 -7 -2 -20 -9 -11 -10
-17 -2 -17 6 0 11 -5 11 -11 0 -5 -4 -8 -8 -5 -4 2 -8 -4 -8 -14 0 -10 4 -16
8 -14 12 8 9 -11 -4 -24 -9 -9 -9 -12 0 -12 10 0 10 -5 2 -20 -7 -14 -7 -20 0
-20 5 0 10 -5 10 -11 0 -5 -5 -7 -12 -3 -7 5 -8 3 -3 -7 12 -18 14 -49 3 -43
-4 3 -8 0 -8 -5 0 -6 4 -11 8 -11 16 0 5 -43 -16 -65 -15 -15 -29 -21 -47 -17
-14 2 -25 8 -25 13 0 5 -27 9 -60 9 -36 0 -60 -4 -60 -11 0 -6 -5 -9 -12 -7
-7 3 -23 -7 -35 -20 -13 -14 -23 -21 -24 -16 0 5 -5 -2 -11 -16 -6 -14 -10
-28 -10 -32 1 -5 -2 -8 -6 -8 -4 0 -8 -10 -9 -22 -3 -31 -30 -43 -98 -43 -66
0 -94 17 -69 43 8 7 14 17 14 22 0 17 -19 20 -34 4 -9 -8 -16 -12 -16 -7 0 5
4 13 10 19 6 6 3 10 -9 10 -12 0 -17 -6 -13 -18 7 -26 18 -30 36 -12 9 8 16
11 16 6 0 -5 -7 -15 -15 -22 -8 -7 -12 -16 -9 -21 3 -5 0 -9 -7 -9 -8 0 -9 -3
0 -13 8 -11 6 -18 -11 -33 -12 -10 -18 -13 -14 -6 9 15 -6 16 -22 0 -9 -9 -12
-9 -12 1 0 7 -5 9 -12 5 -10 -6 -10 -4 -2 7 13 16 15 51 2 43 -4 -3 -8 0 -8 5
0 6 5 11 11 11 8 0 7 6 -2 17 -10 11 -10 14 -1 9 8 -4 12 -1 12 10 0 14 3 14
15 4 14 -12 15 -10 11 14 -3 19 0 29 12 33 9 3 25 15 35 27 11 14 17 16 15 6
-2 -8 -7 -19 -13 -23 -6 -5 -4 -7 5 -4 9 2 15 16 15 38 0 33 -1 34 -37 31
l-38 -4 0 61 c0 33 5 63 10 66 6 4 8 11 5 16 -3 5 1 6 9 3 11 -4 16 0 16 13 0
25 46 76 60 68 6 -4 7 -11 4 -17 -5 -7 -2 -8 5 -4 9 6 8 13 -6 29 -15 17 -15
19 -2 15 12 -5 16 -1 14 15 -2 31 5 40 21 26 12 -10 13 -9 8 5 -8 22 37 69 48
52 5 -7 8 -7 8 -1z m219 -481 c6 4 14 0 17 -8 3 -9 11 -13 18 -9 6 3 8 3 4 -2
-4 -4 -3 -16 3 -26 7 -14 5 -23 -11 -39 -11 -11 -20 -24 -20 -28 0 -4 -11 -9
-25 -10 -14 -1 -25 3 -25 8 0 6 -10 10 -22 10 -12 0 -19 3 -16 6 4 3 2 19 -2
35 -7 22 -5 31 8 39 9 5 13 10 7 10 -5 0 1 6 15 13 15 8 28 9 31 4 4 -5 12 -6
18 -3z m976 -57 c1 -20 -1 -34 -4 -32 -2 3 -11 -3 -20 -13 -17 -19 -61 -27
-61 -11 0 5 -7 9 -16 9 -8 0 -12 5 -9 10 3 6 1 10 -5 10 -6 0 -8 5 -5 10 3 6
1 10 -4 10 -17 0 -13 13 14 44 14 16 25 25 25 21 0 -5 5 -4 11 2 8 8 20 7 43
-6 26 -15 31 -24 31 -54z m-804 -56 c6 10 9 11 9 2 0 -7 5 -13 11 -13 5 0 8 4
5 8 -3 5 1 9 9 9 8 0 15 -5 15 -11 0 -6 5 -4 10 4 9 13 10 13 10 0 0 -13 1
-13 10 0 9 13 10 13 10 0 0 -12 2 -12 9 -1 6 9 10 10 16 2 5 -9 10 -9 21 0 11
9 14 8 14 -2 0 -11 2 -11 10 1 9 13 10 13 10 0 0 -12 2 -12 9 -1 6 9 10 10 16
2 5 -9 10 -9 21 0 11 9 14 8 14 -2 0 -11 2 -11 10 1 6 10 10 11 10 3 0 -7 5
-13 11 -13 5 0 8 4 5 8 -3 5 1 9 9 9 8 0 15 -5 15 -10 0 -5 7 -4 15 3 12 10
15 10 15 -1 0 -11 3 -11 11 1 9 12 12 13 16 1 5 -11 7 -11 14 0 6 10 9 11 9 2
0 -7 5 -13 11 -13 5 0 8 4 5 8 -3 5 1 9 9 9 8 0 15 -5 15 -10 0 -5 7 -4 15 3
12 10 15 10 15 -1 0 -11 3 -11 11 1 9 12 12 13 16 1 5 -11 7 -11 14 0 7 12 9
11 9 -1 0 -13 1 -13 10 0 7 11 10 11 10 2 0 -10 5 -10 20 -2 15 8 20 8 21 -2
0 -10 2 -10 6 -1 3 10 7 10 18 0 7 -7 11 -15 8 -19 -2 -5 1 -8 7 -8 6 0 9 -4
6 -9 -4 -5 -3 -11 1 -14 5 -2 3 -3 -3 -1 -6 1 -17 -3 -24 -9 -10 -9 -11 -9 -6
1 9 15 1 15 -24 2 -13 -7 -21 -7 -25 0 -3 5 -15 10 -26 10 -13 0 -18 -4 -13
-12 5 -7 3 -8 -6 -3 -23 14 -90 15 -90 2 0 -9 -2 -9 -8 1 -5 7 -19 11 -33 8
-13 -2 -29 1 -36 6 -7 5 -13 5 -17 0 -3 -5 -30 -8 -61 -6 -38 3 -55 0 -55 -9
0 -8 -3 -9 -8 -1 -8 12 -133 14 -126 2 3 -4 -2 -5 -10 -2 -9 3 -13 11 -10 18
3 6 -2 2 -10 -8 -12 -15 -16 -16 -17 -5 0 10 -2 10 -6 2 -3 -10 -9 -9 -21 3
-15 15 -14 18 3 30 10 8 15 14 11 14 -4 0 -4 5 0 12 6 9 9 9 12 -1 4 -11 6
-11 13 0z"/>
<path d="M365 1189 c-4 -6 -5 -12 -2 -15 2 -3 7 2 10 11 7 17 1 20 -8 4z"/>
<path d="M305 1169 c-4 -6 -5 -12 -2 -15 2 -3 7 2 10 11 7 17 1 20 -8 4z"/>
<path d="M326 1158 c-11 -16 -13 -25 -4 -35 10 -12 4 -17 -14 -14 -4 0 -11
-11 -14 -27 -4 -15 -10 -29 -13 -32 -17 -13 -38 -74 -33 -96 4 -22 9 -25 34
-22 16 3 31 1 34 -4 3 -4 12 -1 20 7 9 8 20 13 25 9 5 -3 8 -2 7 3 -2 4 1 9 5
10 5 1 16 10 25 20 9 10 29 26 45 36 15 10 27 24 27 33 0 9 5 12 13 8 8 -5 8
-2 -2 9 -11 14 -11 17 0 17 11 0 11 2 1 9 -7 4 -12 12 -11 17 1 5 1 20 0 34
-1 20 -3 22 -11 10 -5 -8 -10 -10 -10 -5 0 13 -53 14 -62 0 -5 -6 -8 -5 -8 4
0 10 -3 11 -13 2 -8 -6 -17 -8 -20 -4 -4 3 -7 1 -7 -5 0 -7 -5 -12 -11 -12 -7
0 -5 10 5 25 20 31 13 33 -8 3z"/>
<path d="M519 1160 c-1 -5 -2 -16 -3 -22 -1 -7 -5 -17 -11 -21 -6 -5 -5 -7 4
-5 8 2 15 16 17 31 2 25 -4 40 -7 17z"/>
<path d="M562 1130 c-7 -11 -8 -20 -4 -20 5 0 9 -7 9 -15 0 -8 -4 -12 -9 -9
-4 3 -8 0 -8 -5 0 -6 5 -11 10 -11 6 0 10 -8 8 -17 -2 -14 4 -18 30 -19 31 -1
37 5 33 35 -2 8 2 10 11 5 10 -6 11 -5 1 7 -10 12 -10 18 0 29 10 10 9 11 -2
5 -11 -6 -13 -3 -9 11 8 29 -52 32 -70 4z"/>
<path d="M510 1041 c0 -6 4 -13 10 -16 6 -3 7 1 4 9 -7 18 -14 21 -14 7z"/>
<path d="M240 1031 c0 -7 -5 -9 -12 -5 -7 5 -8 3 -3 -5 5 -9 10 -10 18 -2 6 6
8 14 4 18 -4 3 -7 1 -7 -6z"/>
<path d="M210 1001 c0 -6 4 -13 10 -16 6 -3 7 1 4 9 -7 18 -14 21 -14 7z"/>
<path d="M513 965 c0 -8 4 -15 9 -15 4 0 8 4 8 9 0 6 -4 12 -8 15 -5 3 -9 -1
-9 -9z"/>
<path d="M210 966 c0 -2 7 -7 16 -10 8 -3 12 -2 9 4 -6 10 -25 14 -25 6z"/>
<path d="M213 931 c0 -11 5 -18 9 -15 4 3 5 11 1 19 -7 21 -12 19 -10 -4z"/>
<path d="M213 885 c0 -8 4 -12 9 -9 5 3 6 10 3 15 -9 13 -12 11 -12 -6z"/>
<path d="M466 862 c-2 -4 4 -8 14 -8 10 0 16 4 14 8 -3 4 -9 8 -14 8 -5 0 -11
-4 -14 -8z"/>
<path d="M406 845 c-11 -8 -15 -15 -9 -15 6 0 16 7 23 15 16 19 11 19 -14 0z"/>
<path d="M210 759 c0 -5 5 -7 10 -4 6 3 10 8 10 11 0 2 -4 4 -10 4 -5 0 -10
-5 -10 -11z"/>
<path d="M350 738 c0 -4 4 -8 9 -8 6 0 12 4 15 8 3 5 -1 9 -9 9 -8 0 -15 -4
-15 -9z"/>
<path d="M330 699 c0 -5 5 -7 10 -4 6 3 10 8 10 11 0 2 -4 4 -10 4 -5 0 -10
-5 -10 -11z"/>
<path d="M1709 618 c-5 -19 -8 -50 -4 -46 7 7 15 48 9 48 -2 0 -4 -1 -5 -2z"/>
<path d="M553 413 c-18 -6 -16 -23 2 -23 8 0 15 -5 15 -11 0 -5 5 -7 10 -4 6
3 10 1 10 -5 0 -6 5 -8 10 -5 6 3 10 1 10 -4 0 -6 9 -11 21 -11 13 0 18 -4 13
-12 -5 -7 -2 -9 9 -5 9 3 18 0 21 -9 3 -8 12 -14 21 -14 8 0 15 -4 15 -10 0
-5 9 -10 20 -10 11 0 20 -4 20 -9 0 -5 14 -14 30 -21 17 -7 30 -17 30 -22 0
-5 5 -6 10 -3 6 3 10 1 10 -6 0 -7 3 -9 6 -6 4 3 18 -3 32 -13 13 -11 31 -20
38 -20 8 0 14 -4 14 -9 0 -5 11 -12 25 -15 14 -4 25 -10 25 -15 0 -4 11 -6 25
-3 14 2 25 9 25 14 0 5 5 6 10 3 6 -3 10 -1 10 5 0 6 5 8 10 5 6 -3 10 -1 10
5 0 6 5 8 10 5 6 -3 10 -2 10 3 0 5 14 15 30 22 17 7 30 17 30 22 0 5 4 7 9 3
5 -3 12 -1 15 4 3 5 29 21 58 36 29 15 60 32 68 39 33 25 78 45 85 38 5 -4 5
-2 2 4 -4 7 3 14 18 18 14 4 25 11 25 17 0 6 4 7 10 4 5 -3 7 0 5 8 -6 14
-105 13 -115 -2 -3 -5 -15 -11 -27 -15 -13 -4 -23 -12 -23 -17 0 -6 -4 -7 -10
-4 -5 3 -10 1 -10 -5 0 -6 -4 -8 -10 -5 -5 3 -10 2 -10 -3 0 -8 -50 -36 -58
-33 -1 1 -10 -5 -18 -14 -9 -8 -21 -15 -29 -15 -7 0 -15 -4 -17 -8 -6 -14 -79
-52 -89 -46 -5 3 -8 0 -7 -6 2 -7 -7 -14 -19 -16 -13 -2 -23 1 -23 7 0 5 -4 7
-10 4 -5 -3 -10 0 -10 7 0 8 -10 14 -22 15 -11 1 -24 6 -27 10 -3 4 -18 14
-33 22 -16 8 -28 18 -28 22 0 5 -7 6 -15 3 -8 -4 -15 -2 -15 3 0 6 -18 18 -40
28 -22 10 -40 22 -40 27 0 4 -9 8 -20 8 -11 0 -20 5 -20 10 0 6 -7 10 -15 10
-8 0 -15 4 -15 8 0 4 -19 9 -42 11 -23 1 -44 3 -47 5 -3 2 -12 1 -18 -1z"/>
</g>
</svg>
